<svg width="199" height="31" viewBox="0 0 199 31" fill="none" xmlns="http://www.w3.org/2000/svg">
<path opacity="0.4" d="M29.4699 22.4851C29.4699 22.5368 29.4699 22.5811 29.4729 22.6225H29.4699V22.4851Z" fill="url(#paint0_linear_4_73)"/>
<path d="M27.6758 10.8079C27.6758 10.8079 27.6691 10.7924 27.6558 10.7657C27.6625 10.7813 27.6669 10.799 27.6736 10.8146V10.8079H27.6758Z" fill="url(#paint1_linear_4_73)"/>
<path d="M32.7266 19.4051C32.6492 19.4287 32.5717 19.4524 32.4921 19.4739C32.5695 19.4503 32.647 19.4287 32.7266 19.4051Z" fill="url(#paint2_linear_4_73)"/>
<path d="M32.1111 19.5859C32.0314 19.6074 31.9518 19.6311 31.87 19.6526C31.9497 19.6311 32.0293 19.6096 32.1111 19.5859Z" fill="url(#paint3_linear_4_73)"/>
<path d="M27.6473 20.5135C27.5914 20.5221 27.5376 20.5307 27.4816 20.5371C27.5354 20.5285 27.5914 20.5221 27.6473 20.5135Z" fill="url(#paint4_linear_4_73)"/>
<path d="M28.2499 20.421C28.1853 20.4317 28.1208 20.4425 28.054 20.4511C28.1186 20.4403 28.1832 20.4317 28.2499 20.421Z" fill="url(#paint5_linear_4_73)"/>
<path d="M33.3337 19.2135C33.2669 19.235 33.2024 19.2565 33.1357 19.2781C33.2024 19.2565 33.2669 19.2372 33.3337 19.2135Z" fill="url(#paint6_linear_4_73)"/>
<path d="M25.8231 20.7395C25.8114 20.7395 25.7973 20.7418 25.7856 20.7442C25.7973 20.7442 25.8114 20.7418 25.8231 20.7395Z" fill="url(#paint7_linear_4_73)"/>
<path d="M28.846 20.3198C28.7772 20.3327 28.7104 20.3435 28.6416 20.3542C28.7104 20.3435 28.7772 20.3306 28.846 20.3198Z" fill="url(#paint8_linear_4_73)"/>
<path d="M24.7929 20.8342C24.7729 20.8342 24.7552 20.8364 24.7352 20.8386C24.7552 20.8386 24.7729 20.8364 24.7929 20.8342Z" fill="url(#paint9_linear_4_73)"/>
<path d="M30.8413 19.9109C30.7768 19.9259 30.7144 19.941 30.6519 19.9561C30.7144 19.941 30.7789 19.9259 30.8413 19.9109Z" fill="url(#paint10_linear_4_73)"/>
<path d="M33.9362 8.11632V4.73724C33.9362 2.13081 31.8248 0.0172649 29.2163 0.0172649H16.7071C16.6921 0.010808 16.6856 0.00650185 16.6792 0.00219727V0.0172649H8.91369C6.30727 0.0172649 4.19802 2.12866 4.19802 4.73724V8.25192C3.02718 8.25192 2.07587 9.20324 2.07587 10.3719V17.0117C2.07587 18.1869 3.02718 19.1382 4.19802 19.1382V28.2489C4.19802 30.0223 6.07482 31.0662 7.54914 30.3C7.77728 30.1795 7.97314 30.0051 8.15178 29.8157L10.6807 27.1017H29.2206C31.8248 27.1017 33.9362 24.9903 33.9362 22.3903V19.0069C33.9513 19.0069 33.9642 19.0069 33.9793 19.0026C33.9943 18.9983 34.0073 18.9983 34.0223 18.9983C34.1192 18.9919 34.216 18.9811 34.3107 18.966C34.3688 18.9553 34.4269 18.9402 34.4829 18.9251C34.5152 18.9165 34.5475 18.9122 34.5776 18.9036C34.6336 18.8864 34.6917 18.8649 34.7476 18.8433C34.8036 18.8218 34.8617 18.796 34.9155 18.7659C34.9693 18.7379 35.0188 18.7077 35.0683 18.6776C35.1716 18.613 35.2685 18.542 35.3567 18.4602C35.7872 18.0728 36.0584 17.5089 36.0584 16.8826V10.2428C36.0584 9.07409 35.1071 8.12063 33.9362 8.12063V8.11632ZM10.6807 6.12545H20.7707C22.8261 6.12545 24.6814 6.95625 26.0287 8.30143C26.0933 8.36815 26.16 8.43702 26.2203 8.50375C26.2353 8.52527 26.2525 8.54678 26.2698 8.564C26.302 8.60059 26.33 8.63073 26.3623 8.66732C26.3666 8.67808 26.3731 8.68454 26.3795 8.69315C26.4054 8.71898 26.4247 8.74265 26.4463 8.77063C26.4463 8.77493 26.4506 8.77493 26.4527 8.77708V8.78139C26.5065 8.84165 26.556 8.90622 26.6055 8.97079C26.6529 9.03105 26.7024 9.09562 26.7476 9.16019C26.7626 9.17741 26.7756 9.19894 26.7863 9.21615C26.8638 9.31946 26.9391 9.42923 27.0102 9.53684C27.0962 9.66813 27.1737 9.79941 27.2491 9.93286C27.3954 10.189 27.5267 10.4559 27.6365 10.7314C27.6429 10.7421 27.6515 10.7572 27.6537 10.7679C27.6601 10.7787 27.6644 10.7895 27.6688 10.7959C27.6688 10.8024 27.6731 10.8067 27.6731 10.8067L27.6688 10.811C28.0067 11.6655 28.2004 12.5909 28.2004 13.5616C28.2004 13.7144 28.1961 13.8673 28.1853 14.0179C28.181 14.1062 28.1745 14.1966 28.1638 14.2848C28.1423 14.5129 28.11 14.7368 28.0669 14.9585C28.0669 14.9628 28.0669 14.9649 28.0626 14.9692V14.9864C28.0626 14.9864 28.0583 14.9929 28.0583 14.9972C28.0303 15.15 27.9938 15.3028 27.955 15.4535C27.9335 15.5245 27.9163 15.5955 27.8947 15.6666C27.884 15.7032 27.8732 15.7333 27.8625 15.7699C27.8452 15.8345 27.8237 15.899 27.7979 15.9614C27.7979 15.9722 27.7936 15.983 27.7871 15.9937C27.7699 16.054 27.7484 16.1121 27.7226 16.1681C27.7075 16.2132 27.6903 16.2606 27.6688 16.3101C27.658 16.3424 27.6429 16.3768 27.6257 16.4134C27.5977 16.4844 27.5698 16.5555 27.5332 16.6265C27.5332 16.6265 27.5317 16.6286 27.5289 16.6329C27.5116 16.676 27.4923 16.7147 27.4729 16.7578C27.4471 16.8073 27.4234 16.8611 27.3976 16.9106C27.3933 16.9214 27.3868 16.9321 27.3825 16.9386C27.3782 16.945 27.376 16.9558 27.3717 16.9644C27.3502 17.0031 27.3287 17.0419 27.3072 17.0785C27.2684 17.1538 27.2297 17.2248 27.1866 17.2958C27.1544 17.354 27.1221 17.4056 27.0876 17.4637C27.0661 17.496 27.0489 17.5283 27.0274 17.5606C26.9886 17.6208 26.9499 17.6811 26.9068 17.7414C26.853 17.8232 26.7971 17.9028 26.739 17.9803C26.7217 18.0018 26.7024 18.0255 26.6852 18.047C26.6679 18.0728 26.6486 18.0943 26.6314 18.118C26.5926 18.1675 26.5496 18.2213 26.5065 18.2708C26.485 18.2988 26.4635 18.3247 26.4398 18.3526C26.414 18.3849 26.386 18.4172 26.3537 18.4495C26.3107 18.5033 26.2655 18.5528 26.2138 18.6066C26.188 18.6346 26.1643 18.6604 26.1385 18.6841C26.0782 18.7486 26.0179 18.8132 25.9491 18.8756C25.9383 18.8864 25.9232 18.9015 25.9103 18.9144C25.863 18.9617 25.8135 19.0069 25.764 19.0543C25.7102 19.1016 25.6564 19.1468 25.6026 19.1942C25.5875 19.2049 25.5703 19.22 25.5531 19.2372C25.4777 19.3018 25.4002 19.362 25.3206 19.4223C25.3163 19.4266 25.3098 19.4288 25.3055 19.4331C25.2668 19.4611 25.2302 19.4912 25.1915 19.5192C25.1269 19.5687 25.0623 19.6117 24.9999 19.6612C24.9246 19.715 24.8514 19.7645 24.7718 19.8097C24.733 19.8377 24.69 19.8635 24.6469 19.8872C24.6426 19.8872 24.6405 19.8915 24.6362 19.8937C24.6082 19.9087 24.5824 19.9259 24.5544 19.9432C24.5006 19.9798 24.4446 20.0099 24.3865 20.04C24.3714 20.0465 24.3585 20.0551 24.3435 20.0615C24.3004 20.0874 24.2574 20.111 24.2122 20.1326C24.1261 20.1778 24.0421 20.2208 23.9517 20.2639C23.885 20.2961 23.8162 20.3241 23.7494 20.3564C23.7451 20.3607 23.7387 20.3629 23.7322 20.3629C23.6332 20.4059 23.5321 20.449 23.4287 20.4877C23.4008 20.4985 23.3685 20.5092 23.3362 20.5243C23.3082 20.535 23.2781 20.5458 23.2501 20.5523C23.1748 20.5845 23.0994 20.6082 23.0263 20.6297C23.022 20.6297 23.0198 20.6297 23.0198 20.6341C22.9552 20.6556 22.8885 20.6728 22.8196 20.69C22.7938 20.6965 22.7723 20.7051 22.7486 20.7115C22.7271 20.718 22.7099 20.7266 22.6905 20.7288C22.6754 20.7331 22.6582 20.7352 22.641 20.7395C22.613 20.746 22.5807 20.7546 22.5528 20.761C22.5463 20.7653 22.5377 20.7653 22.5312 20.7675C22.4753 20.7826 22.4172 20.7955 22.3569 20.8062C22.3461 20.8105 22.3354 20.8127 22.3203 20.8127C22.3096 20.817 22.2988 20.8191 22.2837 20.8191C22.1912 20.845 22.0943 20.8622 21.9953 20.8751C21.9803 20.8794 21.963 20.8816 21.9458 20.8816H21.9351C21.8382 20.8988 21.7435 20.9138 21.6423 20.9246C21.6273 20.9289 21.6144 20.9289 21.5993 20.9289C21.5218 20.9397 21.4422 20.9461 21.3604 20.9547C21.3346 20.9547 21.3109 20.9612 21.2829 20.9612C21.1086 20.972 20.9342 20.9892 20.7556 20.9892H13.6423C13.5282 20.9892 13.4098 20.9827 13.2958 20.9633H10.6635V6.11685L10.6807 6.12545Z" fill="url(#paint11_linear_4_73)"/>
<path d="M36.0584 10.2407V16.8805C36.0584 17.5068 35.7872 18.0707 35.3567 18.4581C35.2685 18.5399 35.1716 18.611 35.0683 18.6755C35.0188 18.7078 34.9693 18.7358 34.9155 18.7638C34.8983 18.7702 34.8789 18.781 34.8617 18.7896C34.8251 18.8068 34.7864 18.8262 34.7476 18.8434C34.6895 18.8649 34.6335 18.8865 34.5776 18.9037C34.3989 18.9575 34.2139 18.9898 34.0223 19.0005L33.919 18.9854C33.5316 19.2695 33.1097 19.5171 32.6728 19.7366C32.4985 19.8227 32.3241 19.9045 32.1412 19.982C29.7522 21.0043 26.8875 21.2217 24.7007 21.1937C24.5867 21.1937 24.4769 21.1894 24.365 21.1894C24.2552 21.1851 24.1476 21.1829 24.0443 21.1786C23.941 21.1743 23.8377 21.1722 23.7343 21.1679C22.8627 21.1291 22.161 21.0581 21.737 21.0086H21.7306C21.5734 20.9914 21.4572 20.972 21.3776 20.9613C21.4594 20.9548 21.5369 20.9462 21.6165 20.9354C21.6316 20.9354 21.6445 20.9354 21.6595 20.9311C21.7629 20.9204 21.8619 20.9053 21.963 20.8881C21.9802 20.8881 21.9996 20.8838 22.0125 20.8816C22.1094 20.8644 22.2041 20.845 22.3009 20.8257C22.316 20.8257 22.3268 20.8214 22.3375 20.8192C22.3526 20.8192 22.3633 20.8149 22.3741 20.8128C22.4344 20.802 22.4925 20.7869 22.5484 20.774C22.5549 20.7697 22.5635 20.7697 22.57 20.7675C22.5979 20.7611 22.6302 20.7525 22.6582 20.746C22.6797 20.7417 22.7013 20.7353 22.7228 20.7288L22.7658 20.718C22.7916 20.7116 22.811 20.703 22.8368 20.6965C22.9036 20.6793 22.9724 20.6599 23.037 20.6406C23.037 20.6363 23.0413 20.6363 23.0435 20.6363C23.0908 20.619 23.1403 20.604 23.1855 20.5911C23.2135 20.5803 23.2393 20.5695 23.2673 20.5588C23.2953 20.5523 23.3233 20.5416 23.3534 20.5308C23.3857 20.5157 23.418 20.505 23.4459 20.4942C23.5493 20.4555 23.6483 20.4124 23.7494 20.3694C23.7559 20.3694 23.7645 20.3651 23.7666 20.3629C23.8334 20.3306 23.9022 20.3027 23.9689 20.2704C24.0572 20.2273 24.1433 20.1843 24.2294 20.1391C24.2746 20.1176 24.3176 20.0917 24.3607 20.0681C24.4597 20.0142 24.5565 19.9583 24.6534 19.9002C24.6577 19.8959 24.6598 19.8937 24.6641 19.8937C24.761 19.8378 24.8535 19.7753 24.9418 19.7129C25.0343 19.6527 25.1226 19.5924 25.2087 19.5235C25.2474 19.4955 25.284 19.4654 25.3227 19.4374C25.3787 19.3944 25.4325 19.3513 25.4863 19.3061C25.5746 19.2351 25.6607 19.1641 25.7424 19.0845C25.8178 19.0199 25.8909 18.9489 25.9641 18.8821C26.0308 18.8176 26.0933 18.753 26.1535 18.6906C26.1794 18.6648 26.203 18.6411 26.2289 18.6131C26.2784 18.5593 26.3257 18.5098 26.3688 18.456C26.3967 18.4237 26.4269 18.3914 26.4548 18.3591C26.4807 18.3312 26.5022 18.3053 26.5216 18.2773C26.5646 18.2278 26.6077 18.174 26.6464 18.1245C26.6636 18.0987 26.683 18.0793 26.7002 18.0535C26.7583 17.9782 26.8143 17.9007 26.8681 17.8211C26.9283 17.735 26.9865 17.651 27.0424 17.5649C27.0639 17.5327 27.0812 17.5004 27.1027 17.4681C27.135 17.41 27.1694 17.3583 27.2017 17.3002C27.2447 17.2292 27.2835 17.1582 27.3222 17.0828C27.348 17.0398 27.3696 16.9946 27.3932 16.9472C27.3932 16.9472 27.3947 16.9458 27.3975 16.9429C27.3975 16.9429 27.4083 16.9257 27.4126 16.9149C27.4384 16.8654 27.4621 16.8116 27.4879 16.7621C27.5095 16.7191 27.5267 16.6803 27.5439 16.6373C27.5439 16.6373 27.5453 16.6352 27.5482 16.6309C27.5848 16.5598 27.6128 16.4888 27.6408 16.4178C27.658 16.3812 27.673 16.3467 27.6838 16.3145C27.7053 16.265 27.7225 16.2176 27.7376 16.1724C27.7634 16.1165 27.7828 16.0583 27.8022 15.9981C27.8086 15.9873 27.8129 15.9765 27.8129 15.9658C27.8388 15.9012 27.8581 15.8366 27.8775 15.7742C27.8883 15.7376 27.899 15.7075 27.9098 15.6709C27.9313 15.5999 27.9485 15.5289 27.9701 15.4579C28.0088 15.3093 28.0454 15.1544 28.0734 15.0016C28.0734 14.9973 28.0734 14.9951 28.0777 14.9908C28.0777 14.98 28.082 14.9736 28.082 14.9628C28.125 14.7411 28.1573 14.5173 28.1788 14.2892C28.1896 14.2009 28.196 14.1105 28.2004 14.0223C28.2111 13.8738 28.2154 13.7188 28.2154 13.566C28.2154 12.5974 28.0239 11.672 27.6838 10.8154L27.6881 10.811C27.6881 10.811 27.6838 10.8067 27.6838 10.8003C27.6795 10.7938 27.6773 10.7831 27.6687 10.7723C27.6644 10.7615 27.658 10.7465 27.6515 10.7357C27.5418 10.4624 27.4083 10.1933 27.2641 9.93722C27.1888 9.80593 27.1113 9.67465 27.0252 9.54121C26.9542 9.43359 26.8788 9.32381 26.8014 9.2205C26.7906 9.20328 26.7755 9.18177 26.7626 9.16455C26.7153 9.09999 26.6658 9.03542 26.6206 8.97515C26.5711 8.91058 26.5173 8.85032 26.4678 8.78575V8.78144C26.4678 8.78144 26.4613 8.77714 26.4613 8.77499C26.4183 8.69751 26.3731 8.61787 26.3214 8.54039C26.3214 8.54039 26.32 8.53895 26.3171 8.53608C26.2848 8.47151 26.2461 8.40695 26.203 8.34453C26.188 8.3187 26.175 8.29717 26.16 8.2778C26.1148 8.20247 26.0674 8.12714 26.0179 8.05397C25.9813 8.00016 25.9512 7.95066 25.9146 7.89685C25.8436 7.78924 25.7683 7.68378 25.6908 7.57616C25.6198 7.47285 25.5444 7.36954 25.4669 7.26623C25.4067 7.18875 25.3486 7.10911 25.2883 7.03378C25.2775 7.01872 25.2668 7.0058 25.256 6.99073C25.2388 6.96491 25.2194 6.94554 25.1979 6.92401C25.1204 6.82501 25.0408 6.72385 24.959 6.62484C24.9332 6.59256 24.9095 6.56028 24.8772 6.528C24.8492 6.49141 24.8169 6.45697 24.7847 6.42038C24.7072 6.32784 24.6276 6.23528 24.5458 6.14704C24.4468 6.03297 24.3456 5.91889 24.2423 5.80913C24.2165 5.7876 24.1971 5.76177 24.1756 5.7381C24.0507 5.60681 23.9237 5.47553 23.7946 5.34208C23.6978 5.23877 23.5945 5.13546 23.4911 5.0386C23.4632 5.01062 23.433 4.98265 23.405 4.95252C23.306 4.85567 23.2049 4.76097 23.1059 4.67057C23.0908 4.65335 23.0779 4.64259 23.0628 4.62752C23.0198 4.58878 22.9767 4.54574 22.9315 4.50699C22.8842 4.46395 22.8347 4.42089 22.7895 4.37785C22.6905 4.281 22.5872 4.19276 22.4839 4.10452C22.4085 4.0378 22.3354 3.96892 22.2557 3.90436C22.0663 3.73648 21.8748 3.5772 21.6854 3.42439C21.6746 3.41362 21.6595 3.40287 21.6466 3.39211C21.397 3.18549 21.1559 2.99393 20.9127 2.80883C20.8675 2.77009 20.8158 2.7335 20.7728 2.70122C20.7663 2.69476 20.7556 2.68616 20.7448 2.6797C20.5748 2.54841 20.4069 2.42358 20.239 2.30305C20.2132 2.28583 20.1852 2.26431 20.1615 2.24709C20.0798 2.18682 19.998 2.12656 19.9162 2.06845C19.9011 2.05768 19.8839 2.04693 19.8667 2.03186C19.8452 2.01464 19.8215 1.99526 19.7957 1.98235C19.7526 1.95006 19.7139 1.92209 19.6708 1.89411C19.6385 1.87259 19.6063 1.85106 19.574 1.82739C19.3717 1.68534 19.1758 1.54975 18.9864 1.42491C18.9821 1.42491 18.9821 1.4206 18.9799 1.4206C18.9304 1.38401 18.8809 1.34958 18.8314 1.3173C18.6808 1.21829 18.5387 1.12575 18.4031 1.03966C18.3859 1.0289 18.3665 1.01813 18.3536 1.00737C18.1642 0.886839 17.9877 0.772772 17.8263 0.675919C17.7187 0.609198 17.624 0.546776 17.5314 0.495121C17.5142 0.488664 17.4949 0.473593 17.4776 0.462831C17.4518 0.445613 17.4281 0.430555 17.4023 0.417642C17.398 0.413337 17.3958 0.413333 17.3915 0.413333C17.3851 0.406876 17.3765 0.40257 17.3743 0.398265C17.3571 0.387504 17.342 0.381048 17.3291 0.372439C17.3119 0.361677 17.2925 0.350924 17.2753 0.340162C17.2323 0.312183 17.1892 0.290652 17.1505 0.264824C17.1225 0.249758 17.0924 0.232546 17.0687 0.21748C16.8944 0.118475 16.776 0.0496031 16.72 0.0173187H29.2291C31.8356 0.0173187 33.9491 2.12871 33.9491 4.73729V8.11638C35.12 8.11638 36.0713 9.072 36.0713 10.2385L36.0584 10.2407Z" fill="url(#paint12_linear_4_73)"/>
<path opacity="0.52" d="M26.4549 8.7728V8.77925C26.4549 8.77925 26.4485 8.77495 26.4485 8.7728L26.3301 8.57048C26.3301 8.57048 26.315 8.54895 26.3086 8.53819C26.3086 8.53819 26.3071 8.53675 26.3043 8.53388C26.272 8.46932 26.2332 8.40476 26.1902 8.34234C26.1751 8.31651 26.1622 8.29499 26.1472 8.27562C26.102 8.20029 26.0546 8.12495 26.0051 8.05177C25.9685 7.99797 25.9384 7.94847 25.9018 7.89466C25.8265 7.78705 25.7533 7.68159 25.6779 7.57397C25.6069 7.47066 25.5316 7.36735 25.4541 7.26404C25.3938 7.18656 25.3357 7.10692 25.2755 7.03159C25.2647 7.01652 25.2539 7.00361 25.2432 6.98854C25.226 6.96271 25.2066 6.94334 25.1851 6.92182C25.1076 6.82282 25.028 6.72167 24.9462 6.62266C24.9203 6.59038 24.8967 6.55809 24.8644 6.52581C24.8364 6.48922 24.8041 6.45478 24.7718 6.41819C24.7137 6.34717 24.6513 6.27614 24.591 6.20512C24.5738 6.18359 24.5545 6.16207 24.5351 6.14485C24.4361 6.03078 24.3349 5.9167 24.2316 5.80694C24.2058 5.78541 24.1864 5.75958 24.1649 5.73591C24.0831 5.64766 23.997 5.56158 23.9195 5.47333C23.8765 5.42813 23.8313 5.38509 23.7839 5.34205C23.6871 5.23874 23.5838 5.13542 23.4805 5.03857C23.3556 4.91373 23.2265 4.7932 23.0952 4.67267C23.0801 4.65546 23.0672 4.6447 23.0522 4.62964C23.0091 4.5909 22.9661 4.54785 22.9209 4.50911C22.8735 4.46606 22.824 4.42301 22.7788 4.37997C22.6798 4.28311 22.5765 4.19488 22.4732 4.10663C22.3979 4.03991 22.3247 3.97103 22.245 3.90646C22.0556 3.73858 21.8641 3.57931 21.6747 3.4265C21.6639 3.41574 21.6489 3.40499 21.6359 3.39423C21.3863 3.18761 21.1452 2.99605 20.902 2.81095C20.8568 2.77221 20.8052 2.73562 20.7621 2.70334C20.7557 2.69688 20.7449 2.68826 20.7341 2.6818C20.5641 2.55051 20.3962 2.42568 20.2284 2.30515C20.2025 2.28794 20.1745 2.26642 20.1509 2.24921C20.0691 2.18894 19.9873 2.13083 19.9055 2.07056C19.8904 2.0598 19.8732 2.04904 19.856 2.03398C19.8345 2.01676 19.8108 1.99738 19.785 1.98446C19.7419 1.95218 19.7032 1.92421 19.6601 1.89623C19.6279 1.8747 19.5956 1.85318 19.5633 1.82951C19.361 1.68745 19.1651 1.55186 18.9757 1.42703C18.9219 1.39044 18.8724 1.356 18.8186 1.31941C18.6679 1.22041 18.5259 1.12785 18.3903 1.04176C18.3731 1.031 18.3537 1.02024 18.3408 1.00948C18.1514 0.888955 17.9749 0.774875 17.8135 0.678022C17.7059 0.611301 17.6112 0.548892 17.5186 0.497237C17.5014 0.49078 17.482 0.475709 17.4648 0.464947C17.439 0.447729 17.4153 0.432671 17.3895 0.419758C17.3787 0.413301 17.368 0.408993 17.3615 0.402536C17.3443 0.391774 17.3292 0.385318 17.3163 0.376709C17.2991 0.365948 17.2797 0.355181 17.2625 0.34442C17.2345 0.327201 17.2022 0.307831 17.1699 0.290612C17.1592 0.284155 17.1484 0.275552 17.1377 0.269095C17.1097 0.254029 17.0795 0.236803 17.0559 0.221737C16.8815 0.122732 16.7632 0.0538603 16.7072 0.0215759H22.5205C22.5205 0.0215759 26.4485 4.96969 26.4571 8.77709L26.4549 8.7728Z" fill="url(#paint13_linear_4_73)"/>
<path d="M21.6166 20.9354L21.7306 21.0064C21.5714 20.987 21.4552 20.972 21.3798 20.9612C21.4595 20.9526 21.5391 20.9461 21.6187 20.9354H21.6166Z" fill="url(#paint14_linear_4_73)"/>
<path d="M36.0606 10.2407C38.5917 10.2407 38.5917 16.8784 36.0606 16.8784C36.0606 17.5047 35.7894 18.0686 35.3589 18.456C35.0038 18.7767 34.5367 18.9725 34.0223 18.9962L33.9212 18.9812C30.0772 21.7748 23.4869 21.2131 21.7328 21.0043C21.7328 21.0043 30.5163 20.9204 31.3772 12.3499C31.6333 9.82315 31.0027 7.27914 29.7802 5.05367C28.9645 3.56859 27.6236 1.64015 26.2224 0.0173187H29.2206C31.827 0.0173187 33.9362 2.12871 33.9362 4.73298V8.11638C35.1114 8.11638 36.0627 9.0677 36.0627 10.2385L36.0606 10.2407Z" fill="url(#paint15_linear_4_73)"/>
<path d="M26.4488 8.77274C26.4316 8.75122 26.4122 8.72968 26.3928 8.70816C26.3885 8.70386 26.3864 8.69741 26.3821 8.69311C26.3756 8.68665 26.367 8.67804 26.3649 8.66728C26.3326 8.63069 26.3046 8.60055 26.2723 8.56396C26.2551 8.54674 26.2357 8.52523 26.2228 8.5037C26.2228 8.5037 26.2185 8.49939 26.2163 8.49939C26.1582 8.43267 26.0958 8.3638 26.0313 8.29923C24.6839 6.9519 22.8286 6.12327 20.7732 6.12327H10.6833V27.0995L8.15432 29.8135C7.97568 30.0029 7.77982 30.1773 7.55168 30.2978C6.07736 31.064 4.20056 30.0201 4.20056 28.2467V19.136C3.02972 19.136 2.0784 18.1847 2.0784 17.0095C-0.689444 17.0095 -0.689444 10.3697 2.0784 10.3697C2.0784 9.20104 3.02972 8.24973 4.20056 8.24973V4.73504C4.20056 2.12862 6.30981 0.0150676 8.91624 0.0150676H16.6817V0C16.6817 0 16.6968 0.00645845 16.7097 0.0150676C16.7656 0.047352 16.884 0.114071 17.0583 0.215229C17.0842 0.230295 17.1122 0.247507 17.1401 0.262573C17.1789 0.288401 17.2219 0.307779 17.265 0.337911C17.2822 0.348673 17.3016 0.359426 17.3188 0.370188C17.3338 0.376645 17.3468 0.385253 17.364 0.396014C17.3683 0.400319 17.3747 0.402473 17.3812 0.411082C17.3855 0.411082 17.3876 0.411086 17.392 0.415391C17.4178 0.430457 17.4415 0.443375 17.4673 0.460593C17.4845 0.471355 17.5039 0.486413 17.5211 0.49287C17.6136 0.546677 17.7105 0.606947 17.816 0.673668C17.9752 0.770521 18.1539 0.884588 18.3433 1.00512C18.3583 1.01588 18.3756 1.02664 18.3928 1.03741C18.5284 1.1235 18.6704 1.21604 18.8211 1.31505C18.8706 1.34733 18.9201 1.38176 18.9696 1.41835C18.9739 1.41835 18.9739 1.42266 18.976 1.42266C19.1654 1.54749 19.3613 1.68309 19.5636 1.82514C19.5959 1.85097 19.6282 1.87034 19.6605 1.89186C19.7035 1.91984 19.7423 1.94998 19.7853 1.98011C19.8111 1.99733 19.8348 2.01669 19.8563 2.02961C19.8735 2.04467 19.8929 2.05543 19.9058 2.06619C19.9876 2.12646 20.0694 2.18457 20.1512 2.24484C20.177 2.26206 20.205 2.28358 20.2287 2.3008C20.3987 2.42563 20.5666 2.55262 20.7345 2.67745C20.7452 2.68391 20.756 2.69251 20.7624 2.69897C20.8055 2.73125 20.855 2.76569 20.9023 2.80658C21.1455 2.99168 21.3866 3.18324 21.6363 3.38986C21.6513 3.40062 21.6643 3.41137 21.675 3.42213C21.8644 3.57495 22.056 3.73638 22.2454 3.9021C22.3229 3.96667 22.3982 4.03339 22.4735 4.10227C22.5768 4.19051 22.6801 4.28091 22.7791 4.37561C22.8265 4.41866 22.876 4.4617 22.9212 4.50474C22.9664 4.54348 23.0094 4.58653 23.0525 4.62527C23.0675 4.64034 23.0805 4.6511 23.0955 4.66832C23.1945 4.75656 23.2957 4.85342 23.3947 4.95027C23.4227 4.97825 23.4528 5.00622 23.4808 5.03635C23.5841 5.13536 23.6831 5.23652 23.7843 5.33983C23.9134 5.47112 24.0404 5.60241 24.1652 5.73585C24.1867 5.76167 24.2083 5.78535 24.2319 5.80688C24.3352 5.91664 24.4342 6.03072 24.5354 6.14479C24.6172 6.23303 24.6947 6.32558 24.7743 6.41813C24.8066 6.45472 24.8389 6.48916 24.8669 6.52575C24.8991 6.55803 24.9228 6.59032 24.9486 6.6226C25.0304 6.72161 25.1079 6.82276 25.1876 6.92176C25.2091 6.94328 25.2263 6.96481 25.2457 6.98848C25.2564 7.00355 25.2672 7.01646 25.2779 7.03153C25.3382 7.10686 25.3963 7.18435 25.4566 7.26398C25.5341 7.36729 25.6094 7.4706 25.6804 7.57391C25.7558 7.68153 25.8289 7.78699 25.9043 7.8946C25.9409 7.94841 25.971 7.99791 26.0076 8.05171C26.0571 8.12704 26.1044 8.20023 26.1496 8.27556C26.1647 8.29708 26.1776 8.31861 26.1927 8.34228C26.2357 8.40685 26.2745 8.47141 26.3067 8.53383C26.3067 8.53383 26.3082 8.53526 26.311 8.53813C26.3605 8.61562 26.4079 8.69526 26.451 8.77274H26.4488Z" fill="url(#paint16_linear_4_73)"/>
<path opacity="0.49" d="M10.6807 20.972V27.1017L8.1518 29.8157C7.97531 30.0051 7.7773 30.1773 7.55131 30.3C6.07484 31.0662 4.19804 30.0202 4.19804 28.2489V20.972H10.6807Z" fill="url(#paint17_linear_4_73)"/>
<path opacity="0.5" d="M26.4549 8.77109C26.1364 8.22441 25.7037 7.72292 25.2862 7.24942C24.8407 6.74363 24.3801 6.25291 23.9066 5.7751C23.4438 5.31021 22.9746 4.83024 22.4624 4.41915C21.6402 3.7584 20.6868 3.27198 19.6644 3.00725C19.0532 2.84798 18.4225 2.7705 17.7919 2.7705H9.15263C8.35197 2.7705 7.70198 3.42049 7.70198 4.22114V20.9767H4.19806V19.1408C3.02721 19.1408 2.0759 18.1895 2.0759 17.0144C-0.691946 17.0144 -0.691946 10.3767 2.0759 10.3767C2.0759 9.20584 3.02721 8.25453 4.19806 8.25453V4.73985C4.19806 2.13343 6.30945 0.0241771 8.91373 0.0241771H16.677V0.0091095C16.677 0.0392416 16.9762 0.176996 17.002 0.192062C17.256 0.338418 17.5057 0.486916 17.7553 0.639729C18.5732 1.14337 19.3739 1.67929 20.1508 2.24534C21.1624 2.98358 22.1352 3.77562 23.0543 4.62793C24.0185 5.52328 24.9182 6.49827 25.6822 7.57442C25.9577 7.96183 26.216 8.36216 26.457 8.77324L26.4549 8.77109Z" fill="url(#paint18_linear_4_73)"/>
<path opacity="0.4" d="M33.934 21.835V22.3903C33.934 24.9924 31.8227 27.1038 29.2205 27.1038H10.6807V24.0712H26.5775C28.1444 24.0712 29.5348 23.305 30.3914 22.1234C31.5213 22.104 32.7051 22.0179 33.934 21.8371V21.835Z" fill="url(#paint19_linear_4_73)"/>
<path d="M30.3914 22.1213C29.5348 23.3029 28.1444 24.0691 26.5775 24.0691H10.6807V20.9719H13.3129C13.427 20.987 13.5432 20.9956 13.6595 20.9956H20.7706C20.9471 20.9956 21.1258 20.9805 21.3001 20.9698C21.3259 20.9698 21.3539 20.9612 21.3797 20.9612C21.4551 20.9719 21.5734 20.987 21.7306 21.0064C22.331 21.1872 25.8457 22.1987 30.3935 22.1213H30.3914Z" fill="url(#paint20_linear_4_73)"/>
<path opacity="0.4" d="M34.0202 18.9984C33.9901 18.9984 33.9643 19.007 33.9341 19.007V21.8351C27.7678 22.7519 22.4775 21.2346 21.7306 21.0086C23.4869 21.2152 30.0751 21.7791 33.9191 18.9854L34.0202 19.0005V18.9984Z" fill="#102770"/>
<path d="M31.3728 12.3521C30.5119 20.9247 21.7284 21.0064 21.7284 21.0064L21.6143 20.9354C25.3227 20.52 28.2047 17.3777 28.2047 13.5595C28.2047 12.5888 28.0131 11.6633 27.673 10.811L27.6773 10.8067C27.6773 10.8067 27.6687 10.7917 27.658 10.7658C27.4234 10.1912 27.1178 9.65525 26.7519 9.16023C26.6572 9.03109 26.5603 8.90626 26.457 8.78357C26.457 4.97617 22.5183 0.0194397 22.5183 0.0194397H26.2181C27.6192 1.64227 28.9601 3.57288 29.7758 5.05581C30.9983 7.27912 31.629 9.82529 31.3728 12.3521Z" fill="url(#paint21_linear_4_73)"/>
<path d="M47.404 18V9.6H51.412C52.108 9.6 52.736 9.708 53.296 9.924C53.856 10.14 54.34 10.44 54.748 10.824C55.156 11.2 55.468 11.644 55.684 12.156C55.9 12.66 56.008 13.208 56.008 13.8C56.008 14.392 55.9 14.944 55.684 15.456C55.468 15.968 55.156 16.412 54.748 16.788C54.34 17.164 53.856 17.46 53.296 17.676C52.736 17.892 52.108 18 51.412 18H47.404ZM49.78 16.488L49.408 15.948H51.352C51.712 15.948 52.028 15.892 52.3 15.78C52.58 15.668 52.812 15.516 52.996 15.324C53.18 15.124 53.324 14.896 53.428 14.64C53.532 14.384 53.584 14.104 53.584 13.8C53.584 13.504 53.532 13.228 53.428 12.972C53.324 12.708 53.176 12.48 52.984 12.288C52.8 12.088 52.572 11.932 52.3 11.82C52.028 11.708 51.712 11.652 51.352 11.652H49.372L49.78 11.136V16.488ZM58.4587 18V11.604H60.6907V18H58.4587ZM59.5747 10.344C59.1747 10.344 58.8587 10.252 58.6267 10.068C58.4027 9.876 58.2907 9.608 58.2907 9.264C58.2907 8.944 58.4067 8.684 58.6387 8.484C58.8707 8.276 59.1827 8.172 59.5747 8.172C59.9827 8.172 60.2987 8.268 60.5227 8.46C60.7547 8.644 60.8707 8.912 60.8707 9.264C60.8707 9.584 60.7547 9.844 60.5227 10.044C60.2907 10.244 59.9747 10.344 59.5747 10.344ZM65.8293 18L62.7933 11.604H65.3253L67.1373 16.428L66.5133 16.452L68.3373 11.604H70.8573L67.7133 18H65.8293ZM75.7233 18.12C74.9233 18.12 74.2273 17.98 73.6353 17.7C73.0513 17.412 72.5993 17.02 72.2793 16.524C71.9593 16.02 71.7993 15.448 71.7993 14.808C71.7993 14.312 71.8913 13.86 72.0753 13.452C72.2593 13.044 72.5153 12.692 72.8433 12.396C73.1713 12.1 73.5553 11.872 73.9953 11.712C74.4353 11.552 74.9113 11.472 75.4233 11.472C75.9353 11.472 76.4033 11.552 76.8273 11.712C77.2513 11.864 77.6193 12.088 77.9313 12.384C78.2433 12.68 78.4833 13.028 78.6513 13.428C78.8273 13.828 78.9073 14.272 78.8913 14.76L78.8793 15.276H73.1673L72.8913 14.1H77.0912L76.8753 14.388V14.16C76.8673 13.984 76.7953 13.828 76.6593 13.692C76.5313 13.556 76.3633 13.448 76.1553 13.368C75.9473 13.288 75.7193 13.248 75.4713 13.248C75.1513 13.248 74.8713 13.3 74.6313 13.404C74.3913 13.5 74.1993 13.652 74.0553 13.86C73.9193 14.068 73.8513 14.324 73.8513 14.628C73.8513 14.948 73.9353 15.228 74.1033 15.468C74.2793 15.708 74.5273 15.896 74.8473 16.032C75.1753 16.168 75.5673 16.236 76.0233 16.236C76.4073 16.236 76.7233 16.196 76.9713 16.116C77.2273 16.028 77.4513 15.924 77.6432 15.804L78.6393 17.22C78.3433 17.428 78.0353 17.6 77.7153 17.736C77.3953 17.872 77.0713 17.968 76.7433 18.024C76.4153 18.088 76.0753 18.12 75.7233 18.12ZM81.2028 18V11.604H83.2788L83.3988 13.824L82.8348 13.632C82.9468 13.232 83.1308 12.868 83.3868 12.54C83.6508 12.212 83.9588 11.952 84.3108 11.76C84.6708 11.568 85.0468 11.472 85.4388 11.472C85.6468 11.472 85.8468 11.492 86.0388 11.532C86.2308 11.564 86.3988 11.612 86.5428 11.676L85.9308 14.124C85.8188 14.036 85.6508 13.964 85.4268 13.908C85.2108 13.852 84.9868 13.824 84.7548 13.824C84.5388 13.824 84.3468 13.86 84.1788 13.932C84.0188 13.996 83.8828 14.088 83.7708 14.208C83.6588 14.32 83.5748 14.452 83.5188 14.604C83.4628 14.748 83.4348 14.908 83.4348 15.084V18H81.2028ZM91.7796 20.76C91.1156 20.76 90.4956 20.68 89.9196 20.52C89.3516 20.36 88.8876 20.16 88.5276 19.92L89.2836 18.372C89.4596 18.468 89.6516 18.56 89.8596 18.648C90.0756 18.736 90.3116 18.804 90.5676 18.852C90.8316 18.908 91.1156 18.936 91.4196 18.936C91.8196 18.936 92.1516 18.872 92.4156 18.744C92.6796 18.624 92.8796 18.436 93.0156 18.18C93.1596 17.924 93.2316 17.604 93.2316 17.22V16.404L93.7116 16.464C93.6396 16.72 93.4756 16.956 93.2196 17.172C92.9636 17.38 92.6436 17.548 92.2596 17.676C91.8836 17.804 91.4756 17.868 91.0356 17.868C90.4116 17.868 89.8636 17.74 89.3916 17.484C88.9196 17.22 88.5476 16.856 88.2756 16.392C88.0036 15.928 87.8676 15.384 87.8676 14.76C87.8676 14.112 88.0036 13.544 88.2756 13.056C88.5556 12.56 88.9356 12.172 89.4156 11.892C89.8956 11.612 90.4476 11.472 91.0716 11.472C91.2876 11.472 91.5156 11.496 91.7556 11.544C91.9956 11.584 92.2276 11.644 92.4516 11.724C92.6756 11.804 92.8796 11.908 93.0636 12.036C93.2476 12.156 93.3996 12.292 93.5196 12.444C93.6396 12.588 93.7116 12.748 93.7356 12.924L93.2796 13.032L93.3996 11.604H95.4756V17.22C95.4756 17.804 95.3836 18.312 95.1996 18.744C95.0156 19.184 94.7556 19.552 94.4196 19.848C94.0916 20.152 93.6996 20.38 93.2436 20.532C92.7956 20.684 92.3076 20.76 91.7796 20.76ZM91.7076 16.236C92.0356 16.236 92.3196 16.176 92.5596 16.056C92.7996 15.936 92.9796 15.768 93.0996 15.552C93.2276 15.336 93.2916 15.076 93.2916 14.772C93.2916 14.468 93.2276 14.208 93.0996 13.992C92.9796 13.768 92.7996 13.6 92.5596 13.488C92.3196 13.368 92.0356 13.308 91.7076 13.308C91.3636 13.308 91.0716 13.368 90.8316 13.488C90.5916 13.6 90.4036 13.768 90.2676 13.992C90.1316 14.208 90.0636 14.468 90.0636 14.772C90.0636 15.076 90.1316 15.336 90.2676 15.552C90.4036 15.768 90.5916 15.936 90.8316 16.056C91.0716 16.176 91.3636 16.236 91.7076 16.236ZM101.575 18.12C100.775 18.12 100.079 17.98 99.4868 17.7C98.9028 17.412 98.4508 17.02 98.1308 16.524C97.8108 16.02 97.6508 15.448 97.6508 14.808C97.6508 14.312 97.7428 13.86 97.9268 13.452C98.1108 13.044 98.3668 12.692 98.6948 12.396C99.0228 12.1 99.4068 11.872 99.8468 11.712C100.287 11.552 100.763 11.472 101.275 11.472C101.787 11.472 102.255 11.552 102.679 11.712C103.103 11.864 103.471 12.088 103.783 12.384C104.095 12.68 104.335 13.028 104.503 13.428C104.679 13.828 104.759 14.272 104.743 14.76L104.731 15.276H99.0188L98.7428 14.1H102.943L102.727 14.388V14.16C102.719 13.984 102.647 13.828 102.511 13.692C102.383 13.556 102.215 13.448 102.007 13.368C101.799 13.288 101.571 13.248 101.323 13.248C101.003 13.248 100.723 13.3 100.483 13.404C100.243 13.5 100.051 13.652 99.9068 13.86C99.7708 14.068 99.7028 14.324 99.7028 14.628C99.7028 14.948 99.7868 15.228 99.9548 15.468C100.131 15.708 100.379 15.896 100.699 16.032C101.027 16.168 101.419 16.236 101.875 16.236C102.259 16.236 102.575 16.196 102.823 16.116C103.079 16.028 103.303 15.924 103.495 15.804L104.491 17.22C104.195 17.428 103.887 17.6 103.567 17.736C103.247 17.872 102.923 17.968 102.595 18.024C102.267 18.088 101.927 18.12 101.575 18.12Z" fill="#4B4B4B"/>
<path d="M106.97 18V9.6H111.23C111.87 9.6 112.422 9.712 112.886 9.936C113.358 10.16 113.718 10.476 113.966 10.884C114.222 11.284 114.35 11.756 114.35 12.3C114.35 12.86 114.218 13.356 113.954 13.788C113.69 14.212 113.322 14.548 112.85 14.796C112.386 15.044 111.862 15.168 111.278 15.168H109.202V18H106.97ZM112.07 18L109.646 14.208L112.106 13.908L114.77 18H112.07ZM109.202 13.464H110.978C111.186 13.464 111.366 13.424 111.518 13.344C111.67 13.264 111.79 13.148 111.878 12.996C111.966 12.844 112.01 12.664 112.01 12.456C112.01 12.256 111.962 12.088 111.866 11.952C111.778 11.808 111.65 11.7 111.482 11.628C111.322 11.548 111.126 11.508 110.894 11.508H109.202V13.464ZM119.997 18.12C119.197 18.12 118.501 17.98 117.909 17.7C117.325 17.412 116.873 17.02 116.553 16.524C116.233 16.02 116.073 15.448 116.073 14.808C116.073 14.312 116.165 13.86 116.349 13.452C116.533 13.044 116.789 12.692 117.117 12.396C117.445 12.1 117.829 11.872 118.269 11.712C118.709 11.552 119.185 11.472 119.697 11.472C120.209 11.472 120.677 11.552 121.101 11.712C121.525 11.864 121.893 12.088 122.205 12.384C122.517 12.68 122.757 13.028 122.925 13.428C123.101 13.828 123.181 14.272 123.165 14.76L123.153 15.276H117.441L117.165 14.1H121.365L121.149 14.388V14.16C121.141 13.984 121.069 13.828 120.933 13.692C120.805 13.556 120.637 13.448 120.429 13.368C120.221 13.288 119.993 13.248 119.745 13.248C119.425 13.248 119.145 13.3 118.905 13.404C118.665 13.5 118.473 13.652 118.329 13.86C118.193 14.068 118.125 14.324 118.125 14.628C118.125 14.948 118.209 15.228 118.377 15.468C118.553 15.708 118.801 15.896 119.121 16.032C119.449 16.168 119.841 16.236 120.297 16.236C120.681 16.236 120.997 16.196 121.245 16.116C121.501 16.028 121.725 15.924 121.917 15.804L122.913 17.22C122.617 17.428 122.309 17.6 121.989 17.736C121.669 17.872 121.345 17.968 121.017 18.024C120.689 18.088 120.349 18.12 119.997 18.12ZM127.984 18.12C127.24 18.12 126.58 18.016 126.004 17.808C125.428 17.6 124.968 17.316 124.624 16.956L125.944 15.804C126.208 16.044 126.536 16.232 126.928 16.368C127.32 16.496 127.716 16.56 128.116 16.56C128.236 16.56 128.348 16.552 128.452 16.536C128.556 16.512 128.644 16.484 128.716 16.452C128.788 16.42 128.844 16.38 128.884 16.332C128.932 16.276 128.956 16.216 128.956 16.152C128.956 16.032 128.876 15.936 128.716 15.864C128.596 15.824 128.428 15.784 128.212 15.744C128.004 15.696 127.772 15.648 127.516 15.6C127.092 15.52 126.716 15.428 126.388 15.324C126.06 15.212 125.78 15.072 125.548 14.904C125.34 14.736 125.176 14.536 125.056 14.304C124.936 14.072 124.876 13.808 124.876 13.512C124.876 13.192 124.956 12.908 125.116 12.66C125.284 12.404 125.508 12.188 125.788 12.012C126.076 11.836 126.404 11.704 126.772 11.616C127.14 11.52 127.52 11.472 127.912 11.472C128.32 11.472 128.712 11.508 129.088 11.58C129.472 11.652 129.836 11.756 130.18 11.892C130.524 12.028 130.828 12.204 131.092 12.42L129.976 13.716C129.8 13.596 129.596 13.484 129.364 13.38C129.132 13.268 128.88 13.176 128.608 13.104C128.336 13.032 128.072 12.996 127.816 12.996C127.696 12.996 127.584 13.004 127.48 13.02C127.384 13.036 127.3 13.06 127.228 13.092C127.164 13.124 127.112 13.164 127.072 13.212C127.032 13.26 127.012 13.312 127.012 13.368C127.004 13.44 127.02 13.5 127.06 13.548C127.1 13.596 127.152 13.64 127.216 13.68C127.328 13.744 127.492 13.8 127.708 13.848C127.924 13.896 128.2 13.956 128.536 14.028C129.056 14.132 129.492 14.256 129.844 14.4C130.196 14.536 130.48 14.696 130.696 14.88C130.84 15.016 130.948 15.176 131.02 15.36C131.1 15.536 131.14 15.732 131.14 15.948C131.14 16.364 131.004 16.736 130.732 17.064C130.468 17.392 130.1 17.652 129.628 17.844C129.164 18.028 128.616 18.12 127.984 18.12Z" fill="#F9E004"/>
<path d="M133.15 18V9.6H139.93V11.556H135.43V16.044H140.11V18H133.15ZM134.326 14.664V12.816H139.45V14.664H134.326ZM142.633 18V11.604H144.709L144.817 13.092L144.289 13.236C144.385 12.916 144.557 12.624 144.805 12.36C145.053 12.088 145.361 11.872 145.729 11.712C146.097 11.552 146.501 11.472 146.941 11.472C147.477 11.472 147.933 11.58 148.309 11.796C148.693 12.012 148.981 12.32 149.173 12.72C149.365 13.112 149.461 13.58 149.461 14.124V18H147.229V14.46C147.229 14.212 147.185 14.004 147.097 13.836C147.009 13.668 146.877 13.54 146.701 13.452C146.533 13.356 146.333 13.308 146.101 13.308C145.901 13.308 145.725 13.34 145.573 13.404C145.421 13.468 145.293 13.556 145.189 13.668C145.085 13.772 145.005 13.892 144.949 14.028C144.893 14.156 144.865 14.288 144.865 14.424V18H143.749C143.437 18 143.189 18 143.005 18C142.821 18 142.697 18 142.633 18ZM152.324 18V9.12H154.508V13.092L153.968 13.272C154.048 12.936 154.216 12.632 154.472 12.36C154.736 12.088 155.056 11.872 155.432 11.712C155.808 11.552 156.208 11.472 156.632 11.472C157.176 11.472 157.636 11.584 158.012 11.808C158.396 12.024 158.68 12.332 158.864 12.732C159.056 13.124 159.152 13.584 159.152 14.112V18H156.92V14.484C156.92 14.22 156.876 14.004 156.788 13.836C156.7 13.66 156.568 13.528 156.392 13.44C156.224 13.344 156.024 13.3 155.792 13.308C155.616 13.308 155.452 13.336 155.3 13.392C155.148 13.448 155.016 13.528 154.904 13.632C154.792 13.736 154.704 13.86 154.64 14.004C154.584 14.148 154.556 14.304 154.556 14.472V18H153.44C153.128 18 152.88 18 152.696 18C152.512 18 152.388 18 152.324 18ZM164.439 18.108C163.815 18.108 163.267 17.968 162.795 17.688C162.323 17.408 161.955 17.02 161.691 16.524C161.427 16.02 161.295 15.444 161.295 14.796C161.295 14.14 161.427 13.564 161.691 13.068C161.955 12.572 162.323 12.184 162.795 11.904C163.275 11.616 163.831 11.472 164.463 11.472C164.815 11.472 165.139 11.516 165.435 11.604C165.739 11.684 165.999 11.804 166.215 11.964C166.439 12.116 166.623 12.284 166.767 12.468C166.919 12.644 167.031 12.832 167.103 13.032L166.623 13.056V11.604H168.807V18H166.575V16.344L167.043 16.44C166.987 16.656 166.883 16.864 166.731 17.064C166.587 17.264 166.399 17.444 166.167 17.604C165.935 17.756 165.675 17.88 165.387 17.976C165.099 18.064 164.783 18.108 164.439 18.108ZM165.063 16.272C165.383 16.272 165.659 16.216 165.891 16.104C166.131 15.984 166.315 15.812 166.443 15.588C166.571 15.364 166.635 15.1 166.635 14.796C166.635 14.492 166.571 14.228 166.443 14.004C166.315 13.78 166.131 13.608 165.891 13.488C165.659 13.368 165.383 13.308 165.063 13.308C164.735 13.308 164.455 13.368 164.223 13.488C163.991 13.608 163.811 13.78 163.683 14.004C163.563 14.228 163.503 14.492 163.503 14.796C163.503 15.1 163.563 15.364 163.683 15.588C163.811 15.812 163.991 15.984 164.223 16.104C164.455 16.216 164.735 16.272 165.063 16.272ZM171.742 18V11.604H173.818L173.926 13.092L173.398 13.236C173.494 12.916 173.666 12.624 173.914 12.36C174.162 12.088 174.47 11.872 174.838 11.712C175.206 11.552 175.61 11.472 176.05 11.472C176.586 11.472 177.042 11.58 177.418 11.796C177.802 12.012 178.09 12.32 178.282 12.72C178.474 13.112 178.57 13.58 178.57 14.124V18H176.338V14.46C176.338 14.212 176.294 14.004 176.206 13.836C176.118 13.668 175.986 13.54 175.81 13.452C175.642 13.356 175.442 13.308 175.21 13.308C175.01 13.308 174.834 13.34 174.682 13.404C174.53 13.468 174.402 13.556 174.298 13.668C174.194 13.772 174.114 13.892 174.058 14.028C174.002 14.156 173.974 14.288 173.974 14.424V18H172.858C172.546 18 172.298 18 172.114 18C171.93 18 171.806 18 171.742 18ZM184.529 18.12C183.801 18.12 183.157 17.976 182.597 17.688C182.037 17.4 181.597 17.008 181.277 16.512C180.957 16.008 180.797 15.436 180.797 14.796C180.797 14.156 180.957 13.588 181.277 13.092C181.597 12.588 182.029 12.192 182.573 11.904C183.125 11.616 183.753 11.472 184.457 11.472C185.097 11.472 185.689 11.564 186.233 11.748C186.777 11.924 187.229 12.18 187.589 12.516L186.377 14.028C186.241 13.908 186.081 13.8 185.897 13.704C185.721 13.6 185.529 13.52 185.321 13.464C185.121 13.408 184.901 13.38 184.661 13.38C184.333 13.38 184.045 13.44 183.797 13.56C183.549 13.68 183.361 13.848 183.233 14.064C183.105 14.272 183.041 14.512 183.041 14.784C183.041 15.056 183.105 15.296 183.233 15.504C183.361 15.712 183.545 15.88 183.785 16.008C184.033 16.136 184.321 16.2 184.649 16.2C184.921 16.2 185.161 16.176 185.369 16.128C185.585 16.072 185.777 16.004 185.945 15.924C186.113 15.844 186.257 15.752 186.377 15.648L187.577 17.148C187.209 17.444 186.765 17.68 186.245 17.856C185.725 18.032 185.153 18.12 184.529 18.12ZM192.934 18.12C192.134 18.12 191.438 17.98 190.846 17.7C190.262 17.412 189.81 17.02 189.49 16.524C189.17 16.02 189.01 15.448 189.01 14.808C189.01 14.312 189.102 13.86 189.286 13.452C189.47 13.044 189.726 12.692 190.054 12.396C190.382 12.1 190.766 11.872 191.206 11.712C191.646 11.552 192.122 11.472 192.634 11.472C193.146 11.472 193.614 11.552 194.038 11.712C194.462 11.864 194.83 12.088 195.142 12.384C195.454 12.68 195.694 13.028 195.862 13.428C196.038 13.828 196.118 14.272 196.102 14.76L196.09 15.276H190.378L190.102 14.1H194.302L194.086 14.388V14.16C194.078 13.984 194.006 13.828 193.87 13.692C193.742 13.556 193.574 13.448 193.366 13.368C193.158 13.288 192.93 13.248 192.682 13.248C192.362 13.248 192.082 13.3 191.842 13.404C191.602 13.5 191.41 13.652 191.266 13.86C191.13 14.068 191.062 14.324 191.062 14.628C191.062 14.948 191.146 15.228 191.314 15.468C191.49 15.708 191.738 15.896 192.058 16.032C192.386 16.168 192.778 16.236 193.234 16.236C193.618 16.236 193.934 16.196 194.182 16.116C194.438 16.028 194.662 15.924 194.854 15.804L195.85 17.22C195.554 17.428 195.246 17.6 194.926 17.736C194.606 17.872 194.282 17.968 193.954 18.024C193.626 18.088 193.286 18.12 192.934 18.12Z" fill="#4ABCCC"/>
<defs>
<linearGradient id="paint0_linear_4_73" x1="29.4699" y1="22.5545" x2="29.4729" y2="22.5545" gradientUnits="userSpaceOnUse">
<stop stop-color="#FF00FF"/>
<stop offset="1" stop-color="#2E3192"/>
</linearGradient>
<linearGradient id="paint1_linear_4_73" x1="1.2788" y1="10.7902" x2="36.3217" y2="10.7902" gradientUnits="userSpaceOnUse">
<stop stop-color="#17C3FE"/>
<stop offset="1" stop-color="#A497FF"/>
</linearGradient>
<linearGradient id="paint2_linear_4_73" x1="-19.1283" y1="19.4417" x2="36.0605" y2="19.4417" gradientUnits="userSpaceOnUse">
<stop stop-color="#FF0066"/>
<stop offset="1" stop-color="#1297E0"/>
</linearGradient>
<linearGradient id="paint3_linear_4_73" x1="-19.1283" y1="19.6182" x2="36.0605" y2="19.6182" gradientUnits="userSpaceOnUse">
<stop stop-color="#FF0066"/>
<stop offset="1" stop-color="#1297E0"/>
</linearGradient>
<linearGradient id="paint4_linear_4_73" x1="-19.1296" y1="20.5242" x2="36.0608" y2="20.5242" gradientUnits="userSpaceOnUse">
<stop stop-color="#FF0066"/>
<stop offset="1" stop-color="#1297E0"/>
</linearGradient>
<linearGradient id="paint5_linear_4_73" x1="-19.1287" y1="20.436" x2="36.0606" y2="20.436" gradientUnits="userSpaceOnUse">
<stop stop-color="#FF0066"/>
<stop offset="1" stop-color="#1297E0"/>
</linearGradient>
<linearGradient id="paint6_linear_4_73" x1="-19.1275" y1="19.2458" x2="36.0606" y2="19.2458" gradientUnits="userSpaceOnUse">
<stop stop-color="#FF0066"/>
<stop offset="1" stop-color="#1297E0"/>
</linearGradient>
<linearGradient id="paint7_linear_4_73" x1="-23.183" y1="20.7418" x2="36.9882" y2="20.7418" gradientUnits="userSpaceOnUse">
<stop stop-color="#FF0066"/>
<stop offset="1" stop-color="#1297E0"/>
</linearGradient>
<linearGradient id="paint8_linear_4_73" x1="-19.1276" y1="20.3392" x2="36.0604" y2="20.3392" gradientUnits="userSpaceOnUse">
<stop stop-color="#FF0066"/>
<stop offset="1" stop-color="#1297E0"/>
</linearGradient>
<linearGradient id="paint9_linear_4_73" x1="-20.4897" y1="20.8364" x2="36.412" y2="20.8364" gradientUnits="userSpaceOnUse">
<stop stop-color="#FF0066"/>
<stop offset="1" stop-color="#1297E0"/>
</linearGradient>
<linearGradient id="paint10_linear_4_73" x1="-19.1287" y1="19.9345" x2="36.0607" y2="19.9345" gradientUnits="userSpaceOnUse">
<stop stop-color="#FF0066"/>
<stop offset="1" stop-color="#1297E0"/>
</linearGradient>
<linearGradient id="paint11_linear_4_73" x1="2.07587" y1="15.2792" x2="36.0584" y2="15.2792" gradientUnits="userSpaceOnUse">
<stop stop-color="#FF0066"/>
<stop offset="1" stop-color="#1297E0"/>
</linearGradient>
<linearGradient id="paint12_linear_4_73" x1="16.169" y1="10.6066" x2="36.0584" y2="10.6066" gradientUnits="userSpaceOnUse">
<stop stop-color="#1297E0"/>
<stop offset="1" stop-color="#27CBC0"/>
</linearGradient>
<linearGradient id="paint13_linear_4_73" x1="16.7072" y1="4.39934" x2="26.4549" y2="4.39934" gradientUnits="userSpaceOnUse">
<stop stop-color="#2E3192"/>
<stop offset="1" stop-color="#005B50"/>
</linearGradient>
<linearGradient id="paint14_linear_4_73" x1="21.3691" y1="20.9719" x2="21.7285" y2="20.9719" gradientUnits="userSpaceOnUse">
<stop stop-color="#1297E0"/>
<stop offset="1" stop-color="#27CBC0"/>
</linearGradient>
<linearGradient id="paint15_linear_4_73" x1="21.7285" y1="10.6087" x2="37.9567" y2="10.6087" gradientUnits="userSpaceOnUse">
<stop offset="0.52" stop-color="#20B9CB"/>
<stop offset="0.72" stop-color="#1EB5CD"/>
<stop offset="0.89" stop-color="#1AAAD4"/>
<stop offset="1" stop-color="#16A0DB"/>
</linearGradient>
<linearGradient id="paint16_linear_4_73" x1="16.4299" y1="3.63307" x2="6.5358" y2="25.2873" gradientUnits="userSpaceOnUse">
<stop stop-color="#FFFF00"/>
<stop offset="1" stop-color="#FF0066"/>
</linearGradient>
<linearGradient id="paint17_linear_4_73" x1="7.74287" y1="22.0955" x2="5.33876" y2="37.4348" gradientUnits="userSpaceOnUse">
<stop offset="0.27" stop-color="#760000"/>
<stop offset="0.37" stop-color="#770300"/>
<stop offset="0.46" stop-color="#7D0E00"/>
<stop offset="0.55" stop-color="#872000"/>
<stop offset="0.64" stop-color="#953A00"/>
<stop offset="0.73" stop-color="#A75C00"/>
<stop offset="0.81" stop-color="#BD8500"/>
<stop offset="0.89" stop-color="#D7B500"/>
<stop offset="0.97" stop-color="#F4EC00"/>
<stop offset="1" stop-color="#FFFF00"/>
</linearGradient>
<linearGradient id="paint18_linear_4_73" x1="11.6278" y1="17.7698" x2="15.4954" y2="1.15843" gradientUnits="userSpaceOnUse">
<stop stop-color="#FF0066"/>
<stop offset="1" stop-color="#FFFF00"/>
</linearGradient>
<linearGradient id="paint19_linear_4_73" x1="10.6807" y1="24.4672" x2="33.934" y2="24.4672" gradientUnits="userSpaceOnUse">
<stop stop-color="#FF00FF"/>
<stop offset="1" stop-color="#2E3192"/>
</linearGradient>
<linearGradient id="paint20_linear_4_73" x1="10.6807" y1="22.5151" x2="30.3914" y2="22.5151" gradientUnits="userSpaceOnUse">
<stop stop-color="#FF0066"/>
<stop offset="1" stop-color="#1297E0"/>
</linearGradient>
<linearGradient id="paint21_linear_4_73" x1="21.6165" y1="10.514" x2="31.4309" y2="10.514" gradientUnits="userSpaceOnUse">
<stop stop-color="#1297E0"/>
<stop offset="1" stop-color="#27CBC0"/>
</linearGradient>
</defs>
</svg>
